<svg xmlns="http://www.w3.org/2000/svg" viewBox="0 0 512 512" width="512" height="512">
  <!-- Rounded square border -->
  <rect x="27.0" y="27.0"
        width="458" height="458"
        rx="89.0" ry="89.0"
        fill="none" stroke="#2563EB" stroke-width="22"/>
  <!-- SR ligature (traced from reference, smoothed) -->
  <g transform="translate(-23.77,-24.18) scale(0.24874)">
    <path d="M1845.5,1678.1 C1864.5,1674.3 1861.5,1665.0 1829.4,1628.7 C1824.1,1622.8 1812.1,1608.4 1802.6,1596.7 C1778.7,1567.2 1767.7,1553.8 1759.5,1544.4 C1750.0,1533.5 1737.8,1518.8 1717.0,1493.0 C1696.9,1468.0 1684.5,1453.0 1674.5,1441.6 C1670.6,1437.1 1659.5,1423.6 1649.8,1411.5 C1632.9,1390.5 1626.9,1383.2 1610.6,1364.0 C1606.6,1359.3 1595.8,1346.0 1586.5,1334.5 C1577.3,1323.0 1567.6,1311.0 1565.0,1308.0 C1521.5,1257.6 1521.2,1253.0 1560.8,1246.5 C1616.4,1237.4 1670.0,1213.7 1707.9,1181.6 C1748.7,1147.1 1777.4,1111.1 1799.7,1066.5 C1827.0,1012.0 1835.5,974.3 1835.5,908.0 C1835.5,858.7 1832.0,835.9 1818.1,794.4 C1795.9,728.4 1744.3,661.1 1686.7,623.2 C1663.8,608.1 1643.1,598.0 1614.6,588.1 C1566.3,571.3 1564.4,571.0 1502.5,569.8 C1437.3,568.4 748.7,568.4 689.5,569.7 C641.0,570.8 644.8,570.3 607.0,581.1 C581.2,588.5 539.8,610.3 523.5,625.2 C519.5,628.8 513.5,633.7 510.3,636.1 C449.4,680.6 404.8,757.5 398.0,829.8 C397.4,835.9 396.3,845.2 395.5,850.6 C393.5,863.8 393.5,895.3 395.5,908.5 C396.4,914.0 397.5,922.8 398.1,928.0 C402.1,963.7 417.7,1005.7 442.3,1046.5 C478.8,1107.1 550.0,1158.0 620.1,1173.4 C657.4,1181.7 649.6,1181.3 793.5,1182.0 C865.0,1182.4 924.6,1183.0 926.0,1183.3 C927.4,1183.6 932.1,1184.4 936.5,1185.1 C979.6,1191.3 1022.0,1231.1 1031.0,1273.6 C1043.5,1332.5 1016.8,1391.5 966.5,1416.0 C951.4,1423.3 946.9,1424.0 895.5,1427.0 C885.6,1427.6 871.0,1428.5 863.0,1429.1 C841.9,1430.7 691.2,1429.7 671.5,1428.0 C659.8,1426.9 627.5,1426.6 525.5,1426.6 C377.0,1426.5 388.8,1425.7 383.0,1436.0 C380.0,1441.4 378.6,1520.1 381.0,1544.8 C382.0,1554.6 382.0,1559.4 381.0,1569.3 C378.1,1596.3 381.1,1598.9 417.5,1601.0 C441.7,1602.5 893.2,1601.7 931.0,1600.2 C977.8,1598.3 1008.1,1590.5 1051.5,1569.2 C1081.5,1554.4 1100.9,1538.4 1141.2,1495.2 C1159.1,1476.0 1181.4,1435.9 1194.0,1400.4 C1214.0,1343.8 1215.5,1269.1 1197.8,1214.0 C1195.2,1206.0 1181.6,1174.9 1174.8,1161.6 C1151.0,1115.3 1101.4,1064.7 1058.0,1042.6 C1022.3,1024.4 985.6,1012.4 958.0,1010.0 C950.6,1009.4 942.5,1008.3 940.0,1007.7 C937.0,1007.0 892.7,1006.5 804.0,1006.0 C661.6,1005.4 671.7,1005.8 656.4,1000.1 C614.0,984.2 588.5,958.0 574.1,915.2 C569.5,901.7 568.6,867.5 572.4,852.3 C585.8,798.9 612.2,768.4 660.5,750.5 C679.6,743.4 644.6,743.9 1075.0,744.4 C1501.2,744.9 1531.3,745.2 1545.5,749.3 C1605.6,766.6 1640.2,804.3 1657.1,871.0 C1660.0,882.5 1661.1,932.8 1658.7,945.6 C1656.7,956.0 1648.2,979.5 1641.0,994.5 C1622.1,1033.5 1586.7,1063.5 1545.0,1075.6 C1517.1,1083.7 1523.7,1083.3 1407.5,1083.9 C1295.8,1084.5 1299.5,1084.4 1294.2,1089.3 C1286.7,1096.2 1285.3,1122.7 1287.7,1205.5 C1289.0,1249.7 1288.5,1248.1 1307.5,1269.5 C1311.4,1273.9 1321.0,1285.6 1329.0,1295.5 C1336.9,1305.4 1346.6,1317.1 1350.4,1321.6 C1360.4,1333.0 1383.9,1361.2 1409.3,1392.5 C1418.2,1403.5 1429.3,1417.0 1434.0,1422.5 C1438.7,1428.0 1448.8,1440.4 1456.4,1450.0 C1464.1,1459.6 1474.0,1471.8 1478.5,1477.0 C1482.9,1482.2 1492.2,1493.5 1499.0,1502.0 C1505.8,1510.5 1513.9,1520.4 1517.0,1524.0 C1520.1,1527.6 1529.4,1538.8 1537.5,1549.0 C1545.6,1559.2 1556.0,1571.8 1560.5,1577.0 C1565.0,1582.2 1572.1,1591.1 1576.3,1596.7 C1590.9,1616.4 1630.7,1665.6 1634.9,1669.2 C1642.3,1675.5 1648.0,1677.5 1665.0,1679.3 C1674.2,1680.4 1839.8,1679.2 1845.5,1678.1 Z" fill="#2563EB" fill-rule="evenodd"/>
  </g>
</svg>