<svg xmlns="http://www.w3.org/2000/svg" viewBox="0 0 512 512" width="512" height="512">
  <!-- Rounded square border -->
  <rect x="27.0" y="27.0"
        width="458" height="458"
        rx="77.0" ry="77.0"
        fill="none" stroke="#2563EB" stroke-width="22"/>
  <!-- SR shape (vectorized) -->
  <g transform="translate(35.45,82.67) scale(0.3839)">
    <path d="M1054.42,811.68 C1056.15,810.42 1056.13,810.18 1054.02,806.04 C1052.81,803.66 1049.91,799.64 1047.57,797.11 C1045.24,794.57 1041.95,790.48 1040.25,788.00 C1038.56,785.52 1034.84,781.25 1031.99,778.50 C1029.15,775.75 1025.11,771.02 1023.03,768.00 C1020.95,764.98 1018.23,761.60 1017.00,760.50 C1015.77,759.40 1013.06,756.02 1010.98,753.00 C1008.90,749.98 1005.54,745.92 1003.50,744.00 C1001.46,742.08 998.09,738.02 996.00,735.00 C993.91,731.98 990.54,727.92 988.50,726.00 C986.46,724.08 983.09,720.02 981.00,717.00 C978.91,713.98 975.54,709.92 973.50,708.00 C971.46,706.08 968.10,702.02 966.02,699.00 C963.94,695.98 961.23,692.60 960.00,691.50 C958.77,690.40 956.06,687.02 953.98,684.00 C951.90,680.98 948.54,676.92 946.50,675.00 C944.46,673.08 941.09,669.02 939.00,666.00 C936.91,662.98 933.54,658.92 931.50,657.00 C929.46,655.08 926.10,651.02 924.02,648.00 C921.94,644.98 919.23,641.60 918.00,640.50 C916.77,639.40 914.06,636.02 911.98,633.00 C909.90,629.98 906.54,625.92 904.50,624.00 C902.46,622.08 899.09,618.02 897.00,615.00 C894.91,611.98 891.54,607.92 889.50,606.00 C887.46,604.08 884.10,600.02 882.02,597.00 C879.94,593.98 877.23,590.60 876.00,589.50 C874.77,588.40 872.06,585.02 869.98,582.00 C867.90,578.98 864.54,574.92 862.50,573.00 C860.46,571.08 857.10,567.02 855.02,564.00 C852.94,560.98 850.24,557.60 849.01,556.50 C847.77,555.40 845.40,552.48 843.74,550.00 C842.07,547.52 839.71,544.38 838.50,543.00 C837.29,541.62 836.02,539.73 835.69,538.78 C834.82,536.31 837.60,534.00 841.45,534.00 C843.26,534.00 846.66,533.33 849.00,532.50 C851.34,531.67 855.29,531.00 857.79,531.00 C860.28,531.00 864.61,530.35 867.41,529.57 C870.21,528.78 875.42,527.40 879.00,526.51 C891.58,523.36 899.56,520.72 905.50,517.74 C908.79,516.08 913.95,513.88 916.95,512.84 C919.96,511.81 925.13,509.25 928.46,507.16 C942.18,498.51 943.95,497.35 948.62,494.01 C955.90,488.81 988.69,456.30 992.87,450.15 C994.86,447.21 997.42,443.30 998.53,441.47 C999.65,439.63 1001.29,437.32 1002.18,436.32 C1003.06,435.32 1008.50,425.05 1014.26,413.50 C1024.20,393.59 1026.72,387.15 1030.51,372.00 C1031.40,368.43 1032.78,363.21 1033.57,360.41 C1034.35,357.61 1035.00,353.28 1035.00,350.79 C1035.00,348.29 1035.67,344.34 1036.50,342.00 C1037.69,338.62 1038.00,332.16 1038.00,310.50 C1038.00,288.84 1037.69,282.38 1036.50,279.00 C1035.67,276.66 1035.00,273.38 1035.00,271.71 C1035.00,270.04 1034.35,266.39 1033.57,263.59 C1032.78,260.79 1031.40,255.57 1030.50,252.00 C1027.07,238.32 1025.70,234.21 1021.55,225.00 C1019.19,219.78 1016.49,213.34 1015.54,210.71 C1014.58,208.08 1012.78,204.70 1011.53,203.21 C1010.29,201.72 1007.84,197.80 1006.11,194.50 C1004.37,191.20 1000.96,185.80 998.52,182.50 C996.08,179.20 992.31,174.03 990.13,171.00 C985.15,164.09 960.33,139.41 953.00,134.07 C938.34,123.41 932.37,119.70 919.46,113.25 C903.10,105.08 867.22,93.00 859.29,93.00 C857.62,93.00 854.34,92.33 852.00,91.50 C845.71,89.28 271.45,89.22 263.59,91.43 C260.79,92.22 255.57,93.59 252.00,94.48 C248.43,95.37 243.47,96.72 241.00,97.48 C238.53,98.24 234.70,99.19 232.50,99.59 C228.18,100.37 203.73,112.65 198.01,116.90 C196.09,118.33 192.71,120.32 190.51,121.31 C186.06,123.33 182.00,126.74 182.00,128.48 C182.00,130.95 179.15,133.29 175.42,133.88 C172.24,134.39 171.23,135.12 170.09,137.71 C169.14,139.85 167.43,141.41 164.92,142.41 C160.19,144.31 146.88,157.20 144.19,162.50 C143.08,164.70 141.20,167.09 140.01,167.80 C138.82,168.52 137.09,170.77 136.16,172.80 C135.23,174.84 132.97,178.53 131.14,181.00 C129.31,183.47 126.52,188.05 124.94,191.16 C123.36,194.27 120.92,198.50 119.53,200.55 C118.14,202.60 117.00,205.51 117.00,207.00 C117.00,208.50 116.07,210.91 114.93,212.36 C112.36,215.62 105.00,237.28 105.00,241.58 C105.00,243.32 104.32,246.66 103.50,249.00 C102.66,251.38 102.00,256.67 102.00,261.00 C102.00,265.33 101.34,270.62 100.50,273.00 C98.40,278.96 98.40,306.04 100.50,312.00 C101.33,314.34 102.00,319.06 102.00,322.50 C102.00,325.94 102.68,330.66 103.50,333.00 C104.33,335.34 105.00,338.68 105.00,340.42 C105.00,346.38 112.71,366.49 121.90,384.50 C131.47,403.23 135.53,409.82 141.30,415.90 C143.18,417.88 146.09,421.52 147.77,424.00 C151.60,429.62 161.76,439.65 169.00,444.93 C182.59,454.84 198.20,465.08 204.83,468.42 C217.08,474.58 239.94,483.00 244.45,483.00 C246.26,483.00 249.66,483.68 252.00,484.50 C254.34,485.32 258.39,486.00 261.00,486.00 C263.61,486.00 267.66,486.68 270.00,487.50 C273.65,488.79 286.50,489.00 361.50,489.00 C436.50,489.00 449.35,489.21 453.00,490.50 C455.34,491.32 458.25,492.00 459.46,492.00 C460.68,492.00 466.36,494.29 472.08,497.09 C481.45,501.67 483.61,503.28 493.80,513.34 C503.15,522.56 505.81,525.87 509.06,532.37 C511.23,536.69 513.00,541.25 513.00,542.49 C513.00,543.73 513.67,546.66 514.50,549.00 C515.58,552.06 516.00,557.49 516.00,568.37 C516.00,583.36 515.96,583.61 511.99,595.50 C509.79,602.10 507.20,608.68 506.24,610.12 C505.29,611.55 503.21,614.70 501.64,617.12 C494.04,628.75 478.25,640.99 465.04,645.49 C458.42,647.74 456.06,648.00 442.45,648.00 C431.50,648.00 426.06,648.42 423.00,649.50 C416.63,651.75 279.37,651.75 273.00,649.50 C269.56,648.29 268.00,648.22 264.87,649.16 C261.96,650.03 260.06,650.03 257.19,649.18 C254.48,648.36 230.75,648.04 174.57,648.06 L95.76,648.09 L92.88,650.97 L90.00,653.85 L90.00,689.30 C90.00,718.52 90.27,725.51 91.53,729.07 C92.89,732.95 92.89,733.86 91.53,737.88 C90.67,740.39 90.00,745.79 90.00,750.18 C90.00,756.67 90.34,758.34 92.00,760.00 C93.99,761.99 95.33,762.00 277.37,762.00 C437.82,762.00 461.28,761.81 465.00,760.50 C467.34,759.67 471.29,759.00 473.79,759.00 C478.60,759.00 482.60,758.01 501.00,752.30 C513.43,748.44 539.77,735.86 545.19,731.20 C547.01,729.63 550.52,726.95 553.00,725.25 C558.88,721.21 587.96,691.76 591.65,686.13 C593.22,683.73 595.42,680.28 596.53,678.45 C597.65,676.63 599.29,674.32 600.18,673.32 C603.70,669.34 616.92,640.88 620.30,630.00 C626.01,611.60 627.00,607.60 627.00,602.79 C627.00,600.29 627.67,596.34 628.50,594.00 C629.68,590.67 630.00,584.50 630.00,565.50 C630.00,546.50 629.68,540.33 628.50,537.00 C627.67,534.66 627.00,531.38 627.00,529.71 C627.00,526.77 626.16,523.34 621.80,508.50 C619.71,501.39 603.12,467.01 600.18,463.68 C599.29,462.68 597.65,460.37 596.53,458.55 C595.42,456.72 593.22,453.27 591.64,450.87 C587.93,445.18 561.81,418.74 556.00,414.78 C553.52,413.09 550.38,410.68 549.00,409.43 C541.74,402.81 513.97,389.44 496.50,384.16 C478.06,378.58 475.36,378.00 467.79,378.00 C463.64,378.00 458.34,377.33 456.00,376.50 C452.35,375.21 439.67,375.00 366.05,375.00 L280.35,375.00 L273.43,372.64 C260.82,368.35 240.85,356.99 235.59,351.12 C229.25,344.04 219.24,325.98 215.36,314.57 C213.34,308.64 213.00,305.71 213.00,294.16 C213.00,280.59 213.14,279.76 218.20,262.50 C221.55,251.07 229.67,237.01 237.64,228.86 C244.83,221.49 261.68,211.31 272.98,207.51 L283.39,204.00 L560.86,204.00 C810.18,204.00 838.89,204.16 843.91,205.57 C859.03,209.83 863.90,211.45 868.50,213.77 C877.82,218.46 887.47,225.75 896.12,234.64 C903.57,242.29 905.57,245.14 910.74,255.50 C914.04,262.10 917.67,270.65 918.80,274.50 C924.08,292.47 924.00,291.90 924.00,313.63 L924.00,334.59 L920.07,346.05 C914.16,363.30 910.71,370.96 905.65,378.06 C903.13,381.60 899.58,386.61 897.78,389.18 C895.98,391.75 893.20,394.63 891.60,395.57 C890.01,396.52 886.40,399.36 883.59,401.89 C874.82,409.80 866.04,414.79 853.45,419.02 C846.93,421.21 840.17,423.00 838.42,423.00 C836.68,423.00 833.34,423.68 831.00,424.50 C827.37,425.78 816.32,426.00 755.87,426.00 C686.33,426.00 684.96,426.04 683.00,428.00 C681.05,429.95 681.00,431.32 681.02,478.75 C681.05,535.51 680.33,531.37 692.35,543.87 C696.39,548.07 701.06,553.52 702.73,556.00 C704.40,558.48 706.77,561.40 708.01,562.50 C709.24,563.60 711.94,566.98 714.02,570.00 C716.10,573.02 719.46,577.08 721.50,579.00 C723.54,580.92 726.91,584.98 729.00,588.00 C731.09,591.02 734.46,595.08 736.50,597.00 C738.54,598.92 741.91,602.98 744.00,606.00 C746.09,609.02 749.46,613.08 751.50,615.00 C753.54,616.92 756.90,620.98 758.98,624.00 C761.06,627.02 763.77,630.40 765.00,631.50 C766.23,632.60 768.94,635.98 771.02,639.00 C773.10,642.02 776.46,646.08 778.50,648.00 C780.54,649.92 783.90,653.98 785.98,657.00 C788.06,660.02 790.77,663.40 792.00,664.50 C793.23,665.60 795.94,668.98 798.02,672.00 C800.10,675.02 803.46,679.08 805.50,681.00 C807.54,682.92 810.90,686.98 812.98,690.00 C815.06,693.02 817.77,696.40 819.00,697.50 C820.23,698.60 822.94,701.98 825.02,705.00 C827.10,708.02 830.46,712.08 832.50,714.00 C834.54,715.92 837.90,719.98 839.98,723.00 C842.06,726.02 844.76,729.40 845.99,730.50 C847.23,731.60 849.59,734.52 851.26,737.00 C852.92,739.48 856.45,743.75 859.09,746.50 C863.64,751.22 866.55,754.96 875.84,768.00 C877.99,771.02 880.77,774.40 882.00,775.50 C883.23,776.60 885.93,779.98 888.00,783.00 C890.07,786.02 892.77,789.40 894.00,790.50 C895.23,791.60 897.94,794.98 900.02,798.00 C903.93,803.68 910.00,809.92 913.50,811.84 C916.67,813.58 1052.03,813.43 1054.42,811.68 Z" fill="#2563EB" fill-rule="evenodd"/>
  </g>
</svg>